<svg xmlns="http://www.w3.org/2000/svg" viewBox="0 0 512 512">
  <defs>
    <linearGradient id="bg" x1="0%" y1="0%" x2="100%" y2="100%">
      <stop offset="0%" stop-color="#7c3aed"/>
      <stop offset="100%" stop-color="#3b82f6"/>
    </linearGradient>
    <linearGradient id="shine" x1="0%" y1="0%" x2="100%" y2="100%">
      <stop offset="0%" stop-color="white" stop-opacity="0.15"/>
      <stop offset="100%" stop-color="white" stop-opacity="0"/>
    </linearGradient>
  </defs>
  <!-- Rounded square base -->
  <rect x="32" y="32" width="448" height="448" rx="96" fill="url(#bg)"/>
  <!-- Subtle shine overlay -->
  <rect x="32" y="32" width="448" height="224" rx="96" fill="url(#shine)"/>
  <!-- Play triangle — centered, slightly larger -->
  <polygon points="208,176 208,336 344,256" fill="white" opacity="0.95"/>
  <!-- Main sparkle — top right -->
  <g fill="white" opacity="0.9">
    <path d="M400,80 L410,112 L442,122 L410,132 L400,164 L390,132 L358,122 L390,112 Z"/>
  </g>
  <!-- Small sparkle — top left -->
  <g fill="white" opacity="0.55">
    <path d="M112,100 L118,116 L134,122 L118,128 L112,144 L106,128 L90,122 L106,116 Z"/>
  </g>
  <!-- Tiny sparkle — bottom right -->
  <g fill="white" opacity="0.4">
    <path d="M380,360 L384,372 L396,376 L384,380 L380,392 L376,380 L364,376 L376,372 Z"/>
  </g>
</svg>
